Coordinates
version=1
nRows=18
nColumns=19
inDegrees=yes

Units are S.I. units (second, meters, Newtons, ...)
If the header above contains a line with 'inDegrees', this indicates whether rotational values are in degrees (yes) or radians (no).

endheader
time	subtalar_angle_l	subtalar_angle_r	pelvis_list	pelvis_rotation	pelvis_tilt	pelvis_tx	pelvis_ty	pelvis_tz	hip_flexion_l	hip_adduction_l	hip_rotation_l	hip_flexion_r	hip_adduction_r	hip_rotation_r	knee_flexion_l	knee_flexion_r	ankle_angle_l	ankle_angle_r
      2.94000000	     20.19559385	     17.14683707	     87.35992843	      9.43038302	    -10.97553454	      1.58602999	     -0.81059595	      0.88310704	     21.92139602	     -0.25677594	     -3.80294344	     16.23392104	      9.62275954	      6.44734464	    -47.91840217	     -9.55377627	     10.85948961	      7.06544333
      2.95000000	     18.96497873	     17.38262547	     87.76528833	      9.17695672	    -10.97783852	      1.59722875	     -0.80861610	      0.88526074	     23.37910999	     -0.89219449	     -3.02397972	     14.57247433	      9.09704938	      6.72093751	    -47.18531600	     -7.99842863	     11.78206588	      6.70103356
      2.96000000	     17.89305231	     17.60609503	     88.16940485	      8.88517549	    -10.98136089	      1.60833436	     -0.80662576	      0.88718821	     24.76975374	     -1.52206529	     -2.28686212	     12.96915266	      8.56623216	      6.97913545	    -46.17417351	     -6.51632924	     12.48549312	      6.33659504
      2.97000000	     17.01068426	     17.81056991	     88.55874420	      8.55299643	    -10.97923399	      1.61936174	     -0.80465078	      0.88886363	     26.08395783	     -2.12347653	     -1.60621307	     11.43136550	      8.05032240	      7.23623846	    -44.89545749	     -5.13834189	     13.01891451	      5.98326582
      2.98000000	     16.35199169	     17.97945657	     88.92066343	      8.18214276	    -10.98729929	      1.63032369	     -0.80270946	      0.89027415	     27.33482444	     -2.68027841	     -1.00879241	      9.98880712	      7.56548121	      7.48836925	    -43.36032071	     -3.88986628	     13.38887915	      5.66466310
      2.99000000	     16.18715006	     18.13894339	     89.23800198	      7.76397232	    -11.03780149	      1.64122377	     -0.80082547	      0.89141839	     28.55682081	     -3.16068100	     -0.48824114	      8.68371865	      7.13456229	      7.77540125	    -41.58221205	     -2.79412715	     13.51876899	      5.58127719
      3.00000000	     16.06200394	     18.26221946	     89.51321214	      7.32787577	    -11.04527437	      1.65213715	     -0.79900312	      0.89226301	     29.63102142	     -3.58790559	     -0.13301607	      7.41869683	      6.75239411	      8.02311079	    -39.55599448	     -1.83640362	     13.65023327	      5.42478807
      3.01000000	     16.07733470	     18.34148960	     89.73551720	      6.85543616	    -11.06066552	      1.66306295	     -0.79725653	      0.89281666	     30.60710839	     -3.93213165	      0.08417483	      6.26338379	      6.43329390	      8.24518207	    -37.29438182	     -1.05155613	     13.71430511	      5.27946955
      3.02000000	     16.28268023	     18.38345656	     89.89695334	      6.34519183	    -11.06540104	      1.67403996	     -0.79559613	      0.89306958	     31.44785682	     -4.18227210	      0.14790895	      5.18571705	      6.18595469	      8.48312412	    -34.80757020	     -0.42940156	     13.69058857	      5.18767767
      3.03000000	     17.15558773	     18.20518440	     89.99539617	      5.79585657	    -11.03949980	      1.68511400	     -0.79403281	      0.89300443	     32.12566976	     -4.31726754	      0.10389386	      4.16920376	      6.01142929	      8.71166751	    -32.12146951	      0.01596088	     13.41998924	      5.11100856
      3.04000000	     17.60980657	     18.22562368	     90.01921815	      5.20485257	    -10.96246458	      1.69632460	     -0.79256497	      0.89261548	     32.59245583	     -4.34035077	     -0.13170429	      3.17272668	      5.92147559	      8.99888665	    -29.25853149	      0.29976677	     13.28450653	      5.25130243
      3.05000000	     18.30368374	     18.17277977	     89.97256949	      4.60692174	    -10.81733936	      1.70771880	     -0.79121412	      0.89188885	     32.82943827	     -4.25588263	     -0.55631463	      2.18293734	      5.91351385	      9.24063139	    -26.27127346	      0.41652750	     12.96546627	      5.48238049
      3.06000000	     18.95967872	     18.10120157	     89.84807791	      3.98859707	    -10.62580211	      1.71930888	     -0.78998251	      0.89083247	     32.86394359	     -4.04647717	     -1.15822506	      1.23367616	      5.99462963	      9.46218229	    -23.22932452	      0.33353009	     12.61751742	      5.76488231
      3.07000000	     19.49866622	     18.03214793	     89.64678943	      3.35997372	    -10.35474615	      1.73113106	     -0.78887375	      0.88944919	     32.68065106	     -3.70700644	     -1.90318847	      0.27710537	      6.16412324	      9.68554943	    -20.22630126	      0.06075765	     12.24267589	      6.08987918
      3.08000000	     20.01408852	     17.90184960	     89.37048959	      2.72668654	    -10.05274282	      1.74316379	     -0.78789175	      0.88778162	     32.36633732	     -3.23702285	     -2.74045314	     -0.62415308	      6.42274592	      9.92989528	    -17.37290480	     -0.43264770	     11.66990888	      6.56823353
      3.09000000	     20.22303548	     17.86161352	     89.06680486	      2.10886492	     -9.59346990	      1.75548923	     -0.78701676	      0.88583769	     31.82273416	     -2.68541167	     -3.56314877	     -1.60793010	      6.71963446	     10.09313193	    -14.77996067	     -1.13412224	     11.35751663	      6.86398849
      3.10000000	     20.30135453	     17.79519758	     88.73908488	      1.51973461	     -9.11756945	      1.76800028	     -0.78626013	      0.88373215	     31.24271973	     -2.07728478	     -4.34213148	     -2.48427909	      7.06224355	     10.20261503	    -12.55136092	     -2.12146561	     10.87303400	      7.26527414
      3.11000000	     20.19839269	     17.71961670	     88.42036398	      0.96595469	     -8.67744903	      1.78064783	     -0.78557265	      0.88156510	     30.71086052	     -1.47082530	     -5.03765776	     -3.17625783	      7.41548137	     10.22093264	    -10.76526395	     -3.41679669	     10.30415153	      7.68682236
